<?xml version="1.0" encoding="utf-8"?>
<!-- Generator: Adobe Illustrator 23.0.2, SVG Export Plug-In . SVG Version: 6.00 Build 0)  -->
<svg version="1.1" id="Capa_1" xmlns="http://www.w3.org/2000/svg" xmlns:xlink="http://www.w3.org/1999/xlink" x="0px" y="0px"
	 viewBox="0 0 1200 227.9" style="enable-background:new 0 0 1200 227.9;" xml:space="preserve">

<style type="text/css">

	.st0{fill:none;
	stroke:#ffffff;
	stroke-dasharray: 900;
	stroke-dashoffset: 0;
	stroke-width:2;stroke-miterlimit:10;
		-webkit-animation: animacion 10s forwards;
		-moz-animation: animacion 10s forwards;
		-o-animation: animacion 10s forwards;
		animation: animacion 10s forwards;

		
	}

@-webkit-keyframes animacion {
			0% {
				stroke-dashoffset: 900;
			}
			90% {
				stroke: #fff;
			}

			100% {
				stroke-dashoffset: 0;
				stroke: #fff;
			}
		}

		@-keyframes animacion {
			0% {
				stroke-dashoffset: 900;
			}
			90% {
				stroke: #fff;
			}

			100% {
				stroke-dashoffset: 0;
				stroke: #fff;
			}
		}

	.st1{fill:transparent; 
-webkit-animation: jade 2s forwards 5s;

-moz-animation: jade 2s forwards 5s;

-o-animation: jade 2s forwards 5s;

animation: jade 2s forwards 5s; }

	.st2{display:inline;fill:transparent;}
	.st3{display:inline;}
	.st4{fill:transparent;}''

	@-webkit-keyframes jade {​​

from {​​
fill: transparent;
}​​
to {​​
fill: #fff;
}​​
}​​
@-keyframes jade {​​
from {​​
fill: transparent;
}​​
to {​​
fill: #fff;
}​​
}​​
</style>
<g id="LINEA">
	<path class="st0" d="M209.1,1.1c-32.9-2.3-58.5-0.2-61.4,0h-2.4v0.2v223.4v0.3h2.3c2.4,0.3,18.3,2,40.7,2c12,0,25.9-0.5,40.6-2
		h140.3V1.1H209.1z M363.6,6.1c-1.8,6.9-6.7,25.1-14.8,48c-2.7-3.2-5.6-6.3-8.9-9.3C316.6,23.4,282.6,12,249.8,6.1H363.6z
		 M150.3,187.3c4.9,10.8,13.8,25.3,28.8,32.8h-28.8V187.3z M302.2,159.7h50.6c-4.6,8.1-10.6,15.5-18,22.1
		c-26.4,23.6-66.8,33.7-103.2,37.7C256.8,210.5,280.6,190.3,302.2,159.7z M305.6,154.8c8.1-12.1,16-25.6,23.4-40.6
		c8.5-17.1,15.5-34.2,21.3-49.7c9.2,13.9,13.9,30.2,13.9,48.6c0,15.5-3,29.4-8.9,41.7H305.6z M200.5,220.1
		c-37.2,0-49.2-43.5-50.2-47.2V6.1h55.3c42.4,2.7,98.2,12.3,130.9,42.4c3.8,3.5,7.2,7.2,10.2,11.1
		C323.2,123.9,275.4,220.1,200.5,220.1z M261.5,220.1c28.2-5.9,56.1-16.3,76.5-34.6c8.5-7.6,15.3-16.2,20.3-25.8h5.9V220H261.5
		V220.1z M364.3,154.8h-3.5c1.3-2.9,2.5-5.9,3.5-9V154.8z M352.4,58.8c5.2-14.3,9.1-27,11.9-36.5v59.4
		C361.5,73.5,357.6,65.8,352.4,58.8z"/>
	<g>
		<g>
			<path class="st0" d="M430.7,160.9c-0.1-0.3-0.2-1.3-0.4-2.8c-0.2-1.3-0.3-2.3-0.4-3.2c-0.2,1-0.4,2-0.8,3s-0.7,2-1.2,3
				l-11.4,23.2l-11.4-23.7c-0.5-1-0.9-1.9-1.2-2.8c-0.3-0.9-0.6-1.8-0.9-2.7c0,0.9-0.1,1.9-0.2,2.9s-0.3,2-0.6,3.1l-4.7,21.5H391
				l10.3-45.4l12.9,27.5c0.2,0.4,0.5,1.2,0.9,2.2s0.9,2.3,1.5,3.8c0.4-1.3,1.1-2.8,2-4.8c0.2-0.5,0.4-0.9,0.5-1.2l12.6-27.5
				l10.5,45.4h-6.6L430.7,160.9z"/>
			<path class="st0" d="M492.4,160.7c0,3.1-0.6,6-1.7,8.8c-1.2,2.8-2.9,5.2-5.1,7.4s-4.8,3.8-7.6,5c-2.8,1.2-5.8,1.7-8.9,1.7
				s-6.1-0.6-9-1.7c-2.8-1.2-5.4-2.8-7.5-5c-2.2-2.2-3.9-4.6-5.1-7.4s-1.7-5.7-1.7-8.8s0.6-6.1,1.7-8.8s2.8-5.2,5.1-7.4
				c2.2-2.2,4.7-3.8,7.6-4.9s5.8-1.7,9-1.7c3.1,0,6.1,0.6,8.9,1.7s5.3,2.8,7.5,4.9c2.2,2.2,3.9,4.7,5.1,7.5
				C491.8,154.7,492.4,157.6,492.4,160.7z M485,160.7c0-2.2-0.4-4.3-1.2-6.3c-0.8-2-2-3.8-3.5-5.3s-3.2-2.7-5.1-3.5s-4-1.2-6.1-1.2
				s-4.2,0.4-6.1,1.2s-3.7,2-5.2,3.5s-2.7,3.3-3.5,5.3s-1.2,4.1-1.2,6.3s0.4,4.3,1.2,6.3c0.8,2,1.9,3.7,3.5,5.3s3.2,2.7,5.1,3.5
				s4,1.2,6.1,1.2s4.1-0.4,6.1-1.2c1.9-0.8,3.6-2,5.2-3.5c1.5-1.5,2.7-3.3,3.5-5.3C484.6,164.9,485,162.9,485,160.7z"/>
			<path class="st0" d="M500.5,182.4v-45.3l27.7,26.6c0.8,0.8,1.5,1.6,2.3,2.4c0.8,0.9,1.6,1.8,2.4,2.9v-30.2h6.5v45.3L511.2,157
				c-0.8-0.7-1.5-1.5-2.2-2.3s-1.4-1.7-2-2.6v30.3H500.5z"/>
			<path class="st0" d="M547,173.6l5.7-2.6c0.5,1.9,1.5,3.4,2.9,4.5s3.3,1.5,5.5,1.5c2.1,0,3.8-0.6,5-1.8s1.9-2.7,1.9-4.7
				c0-2.6-2.1-4.8-6.4-6.8c-0.6-0.3-1.1-0.5-1.4-0.7c-4.8-2.3-8-4.5-9.6-6.4s-2.4-4.2-2.4-6.9c0-3.6,1.2-6.4,3.6-8.6
				c2.4-2.2,5.6-3.3,9.5-3.3c3.2,0,5.9,0.6,8.1,1.9s3.7,3,4.5,5.3l-5.5,2.9c-0.9-1.4-1.8-2.4-2.9-3c-1-0.6-2.2-1-3.6-1
				c-1.9,0-3.4,0.5-4.5,1.5s-1.7,2.3-1.7,4c0,2.6,2.5,5.1,7.4,7.3c0.4,0.2,0.7,0.3,0.9,0.4c4.3,2,7.3,3.9,8.9,5.8
				c1.6,1.9,2.4,4.3,2.4,7.1c0,4.1-1.3,7.4-3.9,9.8c-2.6,2.4-6.1,3.6-10.5,3.6c-3.7,0-6.8-0.9-9.1-2.6
				C549.3,179.3,547.7,176.8,547,173.6z"/>
			<path class="st0" d="M582.9,182.4v-43.6h24.3v6H590v10.9h17.2v6.2H590V176h17.2v6.3h-24.3V182.4z"/>
			<path class="st0" d="M622,162.9v19.5h-6.6v-43.6h9.9c2.9,0,5.1,0.2,6.7,0.6c1.6,0.4,3,1,4.1,1.9c1.3,1.1,2.4,2.4,3.1,4.1
				c0.7,1.7,1.1,3.5,1.1,5.5c0,3.5-0.8,6.2-2.5,8.2s-4.2,3.2-7.5,3.6l15,19.8h-8L622.8,163H622V162.9z M622.5,157.4h1.3
				c3.8,0,6.2-0.4,7.5-1.3s1.8-2.4,1.8-4.6c0-2.4-0.7-4.1-2-5.1s-3.8-1.5-7.3-1.5h-1.3V157.4z"/>
		</g>
	</g>
	<g>
		<g>
			<path class="st0" d="M391.2,109.6h7c3.2,0,4.8-1.9,4.8-5.8V39.5h10.7v66.3c0,9-4.1,13.4-12.3,13.4h-10.1v-9.6H391.2z"/>
			<path class="st0" d="M433.8,119.2h-10.7V53.1c0-9.1,4.3-13.7,12.8-13.7h8c8.5,0,12.8,4.6,12.8,13.7v66.1H446V90h-12.2V119.2z
				 M446,80.4V53.8c0-3.1-1.6-4.7-4.7-4.7h-2.9c-3.1,0-4.7,1.6-4.7,4.7v26.6H446z"/>
			<path class="st0" d="M466.1,119.2V39.5h18.6c10,0,15,5.1,15,15.3v52.9c0,7.7-4.3,11.6-12.8,11.6h-20.8V119.2z M476.8,109.6h8
				c2.8,0,4.2-1.2,4.2-3.6V54.9c0-3.8-1.6-5.8-4.8-5.8h-7.4L476.8,109.6L476.8,109.6z"/>
			<path class="st0" d="M509.1,119.2V39.5h26.4v9.7h-15.8v24.2h14V83h-14v26.6h15.8v9.7h-26.4V119.2z"/>
		</g>
	</g>
</g>
<g id="iso" class="st0">
	<path class="st0" d="M209.1,1.1c-32.9-2.3-58.5-0.2-61.4,0h-2.4v0.2v223.4v0.3h2.3c2.4,0.3,18.3,2,40.7,2c12,0,25.9-0.5,40.6-2
		h140.3V1.1H209.1z M363.6,6.1c-1.8,6.9-6.7,25.1-14.8,48c-2.7-3.2-5.6-6.3-8.9-9.3C316.6,23.4,282.6,12,249.8,6.1H363.6z
		 M150.3,187.3c4.9,10.8,13.8,25.3,28.8,32.8h-28.8V187.3z M302.2,159.7h50.6c-4.6,8.1-10.6,15.5-18,22.1
		c-26.4,23.6-66.8,33.7-103.2,37.7C256.8,210.5,280.6,190.3,302.2,159.7z M305.6,154.8c8.1-12.1,16-25.6,23.4-40.6
		c8.5-17.1,15.5-34.2,21.3-49.7c9.2,13.9,13.9,30.2,13.9,48.6c0,15.5-3,29.4-8.9,41.7H305.6z M200.5,220.1
		c-37.2,0-49.2-43.5-50.2-47.2V6.1h55.3c42.4,2.7,98.2,12.3,130.9,42.4c3.8,3.5,7.2,7.2,10.2,11.1
		C323.2,123.9,275.4,220.1,200.5,220.1z M261.5,220.1c28.2-5.9,56.1-16.3,76.5-34.6c8.5-7.6,15.3-16.2,20.3-25.8h5.9V220H261.5
		V220.1z M364.3,154.8h-3.5c1.3-2.9,2.5-5.9,3.5-9V154.8z M352.4,58.8c5.2-14.3,9.1-27,11.9-36.5v59.4
		C361.5,73.5,357.6,65.8,352.4,58.8z"/>
</g>
<g id="texto" class="st1">
	<g class="st1">
		<g>
			<path class="st1" d="M430.7,160.9c-0.1-0.3-0.2-1.3-0.4-2.8c-0.2-1.3-0.3-2.3-0.4-3.2c-0.2,1-0.4,2-0.8,3s-0.7,2-1.2,3
				l-11.4,23.2l-11.4-23.7c-0.5-1-0.9-1.9-1.2-2.8c-0.3-0.9-0.6-1.8-0.9-2.7c0,0.9-0.1,1.9-0.2,2.9s-0.3,2-0.6,3.1l-4.7,21.5H391
				l10.3-45.4l12.9,27.5c0.2,0.4,0.5,1.2,0.9,2.2s0.9,2.3,1.5,3.8c0.4-1.3,1.1-2.8,2-4.8c0.2-0.5,0.4-0.9,0.5-1.2l12.6-27.5
				l10.5,45.4h-6.6L430.7,160.9z"/>
			<path class="st1" d="M492.4,160.7c0,3.1-0.6,6-1.7,8.8c-1.2,2.8-2.9,5.2-5.1,7.4s-4.8,3.8-7.6,5c-2.8,1.2-5.8,1.7-8.9,1.7
				s-6.1-0.6-9-1.7c-2.8-1.2-5.4-2.8-7.5-5c-2.2-2.2-3.9-4.6-5.1-7.4s-1.7-5.7-1.7-8.8s0.6-6.1,1.7-8.8s2.8-5.2,5.1-7.4
				c2.2-2.2,4.7-3.8,7.6-4.9s5.8-1.7,9-1.7c3.1,0,6.1,0.6,8.9,1.7s5.3,2.8,7.5,4.9c2.2,2.2,3.9,4.7,5.1,7.5
				C491.8,154.7,492.4,157.6,492.4,160.7z M485,160.7c0-2.2-0.4-4.3-1.2-6.3c-0.8-2-2-3.8-3.5-5.3s-3.2-2.7-5.1-3.5s-4-1.2-6.1-1.2
				s-4.2,0.4-6.1,1.2s-3.7,2-5.2,3.5s-2.7,3.3-3.5,5.3s-1.2,4.1-1.2,6.3s0.4,4.3,1.2,6.3c0.8,2,1.9,3.7,3.5,5.3s3.2,2.7,5.1,3.5
				s4,1.2,6.1,1.2s4.1-0.4,6.1-1.2c1.9-0.8,3.6-2,5.2-3.5c1.5-1.5,2.7-3.3,3.5-5.3C484.6,164.9,485,162.9,485,160.7z"/>
			<path class="st1" d="M500.5,182.4v-45.3l27.7,26.6c0.8,0.8,1.5,1.6,2.3,2.4c0.8,0.9,1.6,1.8,2.4,2.9v-30.2h6.5v45.3L511.2,157
				c-0.8-0.7-1.5-1.5-2.2-2.3s-1.4-1.7-2-2.6v30.3H500.5z"/>
			<path class="st1" d="M547,173.6l5.7-2.6c0.5,1.9,1.5,3.4,2.9,4.5s3.3,1.5,5.5,1.5c2.1,0,3.8-0.6,5-1.8s1.9-2.7,1.9-4.7
				c0-2.6-2.1-4.8-6.4-6.8c-0.6-0.3-1.1-0.5-1.4-0.7c-4.8-2.3-8-4.5-9.6-6.4s-2.4-4.2-2.4-6.9c0-3.6,1.2-6.4,3.6-8.6
				c2.4-2.2,5.6-3.3,9.5-3.3c3.2,0,5.9,0.6,8.1,1.9s3.7,3,4.5,5.3l-5.5,2.9c-0.9-1.4-1.8-2.4-2.9-3c-1-0.6-2.2-1-3.6-1
				c-1.9,0-3.4,0.5-4.5,1.5s-1.7,2.3-1.7,4c0,2.6,2.5,5.1,7.4,7.3c0.4,0.2,0.7,0.3,0.9,0.4c4.3,2,7.3,3.9,8.9,5.8
				c1.6,1.9,2.4,4.3,2.4,7.1c0,4.1-1.3,7.4-3.9,9.8c-2.6,2.4-6.1,3.6-10.5,3.6c-3.7,0-6.8-0.9-9.1-2.6
				C549.3,179.3,547.7,176.8,547,173.6z"/>
			<path class="st1" d="M582.9,182.4v-43.6h24.3v6H590v10.9h17.2v6.2H590V176h17.2v6.3h-24.3V182.4z"/>
			<path class="st1" d="M622,162.9v19.5h-6.6v-43.6h9.9c2.9,0,5.1,0.2,6.7,0.6c1.6,0.4,3,1,4.1,1.9c1.3,1.1,2.4,2.4,3.1,4.1
				c0.7,1.7,1.1,3.5,1.1,5.5c0,3.5-0.8,6.2-2.5,8.2s-4.2,3.2-7.5,3.6l15,19.8h-8L622.8,163H622V162.9z M622.5,157.4h1.3
				c3.8,0,6.2-0.4,7.5-1.3s1.8-2.4,1.8-4.6c0-2.4-0.7-4.1-2-5.1s-3.8-1.5-7.3-1.5h-1.3V157.4z"/>
		</g>
	</g>
	<g class="st0">
		<g>
			<path class="st0" d="M391.2,109.6h7c3.2,0,4.8-1.9,4.8-5.8V39.5h10.7v66.3c0,9-4.1,13.4-12.3,13.4h-10.1v-9.6H391.2z"/>
			<path class="st0" d="M433.8,119.2h-10.7V53.1c0-9.1,4.3-13.7,12.8-13.7h8c8.5,0,12.8,4.6,12.8,13.7v66.1H446V90h-12.2V119.2z
				 M446,80.4V53.8c0-3.1-1.6-4.7-4.7-4.7h-2.9c-3.1,0-4.7,1.6-4.7,4.7v26.6H446z"/>
			<path class="st0" d="M466.1,119.2V39.5h18.6c10,0,15,5.1,15,15.3v52.9c0,7.7-4.3,11.6-12.8,11.6h-20.8V119.2z M476.8,109.6h8
				c2.8,0,4.2-1.2,4.2-3.6V54.9c0-3.8-1.6-5.8-4.8-5.8h-7.4L476.8,109.6L476.8,109.6z"/>
			<path class="st0" d="M509.1,119.2V39.5h26.4v9.7h-15.8v24.2h14V83h-14v26.6h15.8v9.7h-26.4V119.2z"/>
		</g>
	</g>
</g>
</svg>
